<?xml version="1.0" standalone="no"?>
<!DOCTYPE svg PUBLIC "-//W3C//DTD SVG 20010904//EN"
 "http://www.w3.org/TR/2001/REC-SVG-20010904/DTD/svg10.dtd">
<svg version="1.0" xmlns="http://www.w3.org/2000/svg"
 width="96.000000pt" height="144.000000pt" viewBox="0 0 96.000000 144.000000"
 preserveAspectRatio="xMidYMid meet">

<g transform="translate(0.000000,144.000000) scale(0.100000,-0.100000)"
fill="#000000" stroke="none">
<path d="M92 1400 c-16 -51 -10 -63 70 -134 65 -58 73 -62 98 -46 12 8 12 11
-1 27 -8 10 -22 35 -32 56 -9 20 -21 37 -27 37 -5 0 -10 9 -10 20 0 10 -9 24
-19 30 -11 5 -23 19 -26 30 -11 35 -39 24 -53 -20z"/>
<path d="M815 1420 c-3 -11 -15 -25 -26 -30 -10 -6 -19 -17 -19 -24 0 -7 -9
-21 -20 -31 -11 -10 -20 -27 -20 -38 0 -12 -10 -31 -22 -44 -19 -20 -20 -25
-8 -33 25 -16 34 -12 104 53 70 64 80 87 62 145 -9 28 -42 29 -51 2z"/>
<path d="M275 1129 c-27 -10 -56 -19 -63 -19 -17 0 -82 -52 -82 -66 0 -6 -29
-42 -65 -80 -36 -38 -65 -76 -65 -85 0 -19 206 -229 225 -229 8 0 30 -9 49
-21 32 -18 51 -20 207 -20 158 0 175 1 200 20 16 12 37 21 47 21 11 0 30 8 43
18 13 10 32 21 42 25 9 3 17 15 17 25 0 10 29 47 65 81 45 43 65 70 65 87 0
13 -4 24 -10 24 -5 0 -37 35 -71 78 -33 42 -66 79 -72 81 -7 2 -20 11 -30 19
-10 9 -48 26 -85 39 -59 20 -86 22 -217 22 -122 -1 -159 -4 -200 -20z m97
-206 c52 -51 53 -98 3 -142 -40 -34 -37 -33 -60 -25 -19 8 -85 92 -85 108 0 7
14 31 31 54 38 52 61 53 111 5z m328 1 c26 -30 30 -41 25 -68 -6 -30 -73 -106
-94 -106 -6 0 -26 14 -46 31 -48 43 -48 84 1 139 46 50 72 51 114 4z"/>
<path d="M256 553 c-3 -3 -6 -52 -6 -107 0 -82 4 -108 20 -139 11 -20 20 -47
20 -59 0 -25 58 -78 86 -78 9 0 34 -18 55 -40 22 -22 43 -40 48 -40 5 0 28 18
52 40 24 22 51 40 60 40 22 0 79 53 79 74 0 9 9 37 20 62 17 37 20 61 18 147
l-3 102 -50 -3 c-27 -2 -79 -10 -114 -19 -49 -12 -72 -13 -100 -5 -20 6 -58
13 -86 17 -27 3 -59 8 -71 10 -12 3 -24 2 -28 -2z"/>
<path d="M148 528 c-46 -73 -54 -129 -26 -200 20 -52 34 -32 47 70 6 53 15
109 18 125 7 34 -18 37 -39 5z"/>
<path d="M773 523 c4 -16 11 -66 18 -113 6 -47 13 -91 15 -97 7 -26 23 -12 38
35 15 44 15 52 0 102 -22 77 -85 141 -71 73z"/>
<path d="M264 109 c-24 -9 -57 -46 -72 -81 l-12 -28 125 0 c69 0 125 4 125 9
0 4 -9 20 -20 34 -11 14 -20 30 -20 35 0 6 -5 14 -12 18 -20 13 -94 21 -114
13z"/>
<path d="M569 73 c-48 -77 -53 -73 82 -73 106 0 120 2 115 16 -3 9 -6 21 -6
28 0 7 -11 25 -25 40 -21 22 -32 26 -84 26 -57 0 -60 -1 -82 -37z"/>
</g>
</svg>
